<?xml version="1.0" standalone="no"?>
<!DOCTYPE svg PUBLIC "-//W3C//DTD SVG 20010904//EN"
 "http://www.w3.org/TR/2001/REC-SVG-20010904/DTD/svg10.dtd">
<svg version="1.0" xmlns="http://www.w3.org/2000/svg"
 width="256.000000pt" height="256.000000pt" viewBox="0 0 256.000000 256.000000"
 preserveAspectRatio="xMidYMid meet">
<metadata>
Created by potrace 1.11, written by Peter Selinger 2001-2013
</metadata>
<g transform="translate(0.000000,256.000000) scale(0.100000,-0.100000)"
fill="#000000" stroke="none">
<path d="M503 2303 c-31 -77 -103 -267 -103 -275 0 -4 -9 -27 -19 -51 -11 -23
-45 -112 -76 -197 -32 -85 -63 -168 -70 -185 -12 -27 -67 -171 -171 -449 -32
-86 -34 -106 -12 -106 5 0 24 -6 41 -14 18 -8 59 -24 92 -36 33 -12 89 -33
125 -47 167 -64 212 -80 225 -82 6 -1 10 186 10 533 0 294 4 538 8 543 5 4
224 8 487 8 264 0 476 3 472 6 -4 4 -27 13 -52 22 -25 8 -153 57 -285 107
-132 51 -251 96 -265 100 -14 5 -108 40 -208 79 -101 39 -185 71 -185 71 -1 0
-7 -12 -14 -27z"/>
<path d="M1965 1929 c-104 -38 -233 -85 -285 -103 -175 -61 -275 -98 -295
-107 -11 -4 -103 -38 -205 -74 -181 -64 -291 -105 -299 -111 -3 -3 17 -66 39
-119 4 -11 13 -33 18 -50 23 -67 75 -211 82 -230 5 -11 38 -101 73 -200 156
-433 246 -677 250 -681 3 -4 521 178 607 213 8 3 20 7 25 9 6 1 53 18 105 37
52 20 138 51 190 70 108 39 99 20 85 178 l-7 85 91 60 c50 32 90 63 91 68 0 7
-196 558 -227 636 -3 8 -7 20 -9 25 -9 34 -127 351 -133 356 -3 4 -91 -24
-196 -62z"/>
<path d="M601 1205 l0 -685 289 0 c185 0 290 4 290 10 0 5 -11 38 -24 72 -14
35 -75 202 -137 373 -61 171 -133 370 -160 444 -40 109 -47 137 -37 147 11 12
72 35 263 103 70 25 333 121 375 137 19 7 79 28 133 47 l99 35 -545 1 -545 2
-1 -686z"/>
<path d="M2455 853 c-46 -30 -54 -40 -50 -62 2 -9 4 -34 4 -56 1 -39 1 -39 14
-15 19 37 76 160 74 159 -1 0 -20 -12 -42 -26z"/>
</g>
</svg>
